<svg viewBox="0 0 1496 400" xmlns="http://www.w3.org/2000/svg"><g><g><g><g><g><line x1="51.5625" y1="377" x2="46.5625" y2="377" style="visibility: inherit;" fill="rgb(0, 0, 0)" stroke="rgb(204, 204, 204)" stroke-width="1px"></line><line x1="51.5625" y1="329.875" x2="46.5625" y2="329.875" style="visibility: inherit;" fill="rgb(0, 0, 0)" stroke="rgb(204, 204, 204)" stroke-width="1px"></line><line x1="51.5625" y1="282.74999999999994" x2="46.5625" y2="282.74999999999994" style="visibility: inherit;" fill="rgb(0, 0, 0)" stroke="rgb(204, 204, 204)" stroke-width="1px"></line><line x1="51.5625" y1="235.62499999999997" x2="46.5625" y2="235.62499999999997" style="visibility: inherit;" fill="rgb(0, 0, 0)" stroke="rgb(204, 204, 204)" stroke-width="1px"></line><line x1="51.5625" y1="188.49999999999997" x2="46.5625" y2="188.49999999999997" style="visibility: inherit;" fill="rgb(0, 0, 0)" stroke="rgb(204, 204, 204)" stroke-width="1px"></line><line x1="51.5625" y1="141.37499999999991" x2="46.5625" y2="141.37499999999991" style="visibility: inherit;" fill="rgb(0, 0, 0)" stroke="rgb(204, 204, 204)" stroke-width="1px"></line><line x1="51.5625" y1="94.25" x2="46.5625" y2="94.25" style="visibility: inherit;" fill="rgb(0, 0, 0)" stroke="rgb(204, 204, 204)" stroke-width="1px"></line><line x1="51.5625" y1="47.12499999999996" x2="46.5625" y2="47.12499999999996" style="visibility: inherit;" fill="rgb(0, 0, 0)" stroke="rgb(204, 204, 204)" stroke-width="1px"></line><line x1="51.5625" y1="0" x2="46.5625" y2="0" style="visibility: inherit;" fill="rgb(0, 0, 0)" stroke="rgb(204, 204, 204)" stroke-width="1px"></line></g><g transform="translate(41.5625, 0)"><text x="0" y="377" dx="0em" dy="0.3em" style="text-anchor: end; visibility: hidden; font-family: Roboto, sans-serif; font-size: 12px; font-weight: 200;" fill="rgb(33, 33, 33)" stroke="none" stroke-width="1px">0.3</text><text x="0" y="329.875" dx="0em" dy="0.3em" style="text-anchor: end; visibility: inherit; font-family: Roboto, sans-serif; font-size: 12px; font-weight: 200;" fill="rgb(33, 33, 33)" stroke="none" stroke-width="1px">0.35</text><text x="0" y="282.74999999999994" dx="0em" dy="0.3em" style="text-anchor: end; visibility: inherit; font-family: Roboto, sans-serif; font-size: 12px; font-weight: 200;" fill="rgb(33, 33, 33)" stroke="none" stroke-width="1px">0.4</text><text x="0" y="235.62499999999997" dx="0em" dy="0.3em" style="text-anchor: end; visibility: inherit; font-family: Roboto, sans-serif; font-size: 12px; font-weight: 200;" fill="rgb(33, 33, 33)" stroke="none" stroke-width="1px">0.45</text><text x="0" y="188.49999999999997" dx="0em" dy="0.3em" style="text-anchor: end; visibility: inherit; font-family: Roboto, sans-serif; font-size: 12px; font-weight: 200;" fill="rgb(33, 33, 33)" stroke="none" stroke-width="1px">0.5</text><text x="0" y="141.37499999999991" dx="0em" dy="0.3em" style="text-anchor: end; visibility: inherit; font-family: Roboto, sans-serif; font-size: 12px; font-weight: 200;" fill="rgb(33, 33, 33)" stroke="none" stroke-width="1px">0.55</text><text x="0" y="94.25" dx="0em" dy="0.3em" style="text-anchor: end; visibility: inherit; font-family: Roboto, sans-serif; font-size: 12px; font-weight: 200;" fill="rgb(33, 33, 33)" stroke="none" stroke-width="1px">0.6</text><text x="0" y="47.12499999999996" dx="0em" dy="0.3em" style="text-anchor: end; visibility: inherit; font-family: Roboto, sans-serif; font-size: 12px; font-weight: 200;" fill="rgb(33, 33, 33)" stroke="none" stroke-width="1px">0.65</text><text x="0" y="0" dx="0em" dy="0.3em" style="text-anchor: end; visibility: hidden; font-family: Roboto, sans-serif; font-size: 12px; font-weight: 200;" fill="rgb(33, 33, 33)" stroke="none" stroke-width="1px">0.7</text></g><line x1="51.5625" y1="0" x2="51.5625" y2="377" fill="rgb(0, 0, 0)" stroke="rgb(204, 204, 204)" stroke-width="1px"></line></g></g><g transform="translate(51, 0)" clip-path="url(#clip_0)"><clipPath id="clip_0"><rect width="1444" height="377"></rect></clipPath><g><g><g><line x1="0" y1="0" x2="0" y2="377" fill="rgb(0, 0, 0)" stroke="rgb(66, 66, 66)" stroke-width="1px" opacity="0.25"></line><line x1="206.34821428571428" y1="0" x2="206.34821428571428" y2="377" fill="rgb(0, 0, 0)" stroke="rgb(66, 66, 66)" stroke-width="1px" opacity="0.25"></line><line x1="412.69642857142856" y1="0" x2="412.69642857142856" y2="377" fill="rgb(0, 0, 0)" stroke="rgb(66, 66, 66)" stroke-width="1px" opacity="0.25"></line><line x1="619.0446428571428" y1="0" x2="619.0446428571428" y2="377" fill="rgb(0, 0, 0)" stroke="rgb(66, 66, 66)" stroke-width="1px" opacity="0.25"></line><line x1="825.3928571428571" y1="0" x2="825.3928571428571" y2="377" fill="rgb(0, 0, 0)" stroke="rgb(66, 66, 66)" stroke-width="1px" opacity="0.25"></line><line x1="1031.7410714285716" y1="0" x2="1031.7410714285716" y2="377" fill="rgb(0, 0, 0)" stroke="rgb(66, 66, 66)" stroke-width="1px" opacity="0.25"></line><line x1="1238.0892857142856" y1="0" x2="1238.0892857142856" y2="377" fill="rgb(0, 0, 0)" stroke="rgb(66, 66, 66)" stroke-width="1px" opacity="0.25"></line><line x1="1444.4375" y1="0" x2="1444.4375" y2="377" fill="rgb(0, 0, 0)" stroke="rgb(66, 66, 66)" stroke-width="1px" opacity="0.25"></line></g><g><line x1="0" y1="377" x2="1444.4375" y2="377" fill="rgb(0, 0, 0)" stroke="rgb(66, 66, 66)" stroke-width="1px" opacity="0.25"></line><line x1="0" y1="329.875" x2="1444.4375" y2="329.875" fill="rgb(0, 0, 0)" stroke="rgb(66, 66, 66)" stroke-width="1px" opacity="0.25"></line><line x1="0" y1="282.74999999999994" x2="1444.4375" y2="282.74999999999994" fill="rgb(0, 0, 0)" stroke="rgb(66, 66, 66)" stroke-width="1px" opacity="0.25"></line><line x1="0" y1="235.62499999999997" x2="1444.4375" y2="235.62499999999997" fill="rgb(0, 0, 0)" stroke="rgb(66, 66, 66)" stroke-width="1px" opacity="0.25"></line><line x1="0" y1="188.49999999999997" x2="1444.4375" y2="188.49999999999997" fill="rgb(0, 0, 0)" stroke="rgb(66, 66, 66)" stroke-width="1px" opacity="0.25"></line><line x1="0" y1="141.37499999999991" x2="1444.4375" y2="141.37499999999991" fill="rgb(0, 0, 0)" stroke="rgb(66, 66, 66)" stroke-width="1px" opacity="0.25"></line><line x1="0" y1="94.25" x2="1444.4375" y2="94.25" fill="rgb(0, 0, 0)" stroke="rgb(66, 66, 66)" stroke-width="1px" opacity="0.25"></line><line x1="0" y1="47.12499999999996" x2="1444.4375" y2="47.12499999999996" fill="rgb(0, 0, 0)" stroke="rgb(66, 66, 66)" stroke-width="1px" opacity="0.25"></line><line x1="0" y1="0" x2="1444.4375" y2="0" fill="rgb(0, 0, 0)" stroke="rgb(66, 66, 66)" stroke-width="1px" opacity="0.25"></line></g></g></g><g><g><line x1="0" y1="659.75" x2="1444.4375" y2="659.75" fill="rgb(0, 0, 0)" stroke="rgb(153, 153, 153)" stroke-width="1.5px"></line></g></g><g><g><line x1="0" y1="0" x2="0" y2="377" fill="rgb(0, 0, 0)" stroke="rgb(153, 153, 153)" stroke-width="1.5px"></line></g></g><g><g><g><g><g><path stroke="rgb(0, 119, 187)" stroke-width="2px" d="M33.01571428571429,421.4699447751045L66.03142857142858,320.7840116969125L132.06285714285715,262.0114273095661L198.09428571428572,196.43332053266502L264.1257142857143,151.65889309735317L330.15714285714284,107.65680901494162L396.18857142857144,72.12235342598913L462.22,68.91021493089018L528.2514285714286,63.95999409772733L594.2828571428571,62.98279432450538L660.3142857142857,66.82927851126544L726.3457142857143,71.22024238019985L792.3771428571429,78.02815009701362L858.4085714285715,67.21232090584324L924.44,56.34615589250507L990.4714285714285,38.41148567550566L1056.5028571428572,53.8389904509082L1122.5342857142857,56.540443449293846L1188.5657142857142,40.62992203162166L1254.597142857143,30.255787319819614L1320.6285714285714,30.267849880520046" style="fill: none;" fill="none"></path></g><g><path stroke="rgb(187, 187, 187)" stroke-width="2px" d="M33.01571428571429,235.72927644848824L66.03142857142858,107.3731740973514L132.06285714285715,63.38160216182924L198.09428571428572,50.33683181937264L264.1257142857143,35.54032307425564L330.15714285714284,38.400908636661505L396.18857142857144,47.26316286098616L462.22,43.775760042481316L528.2514285714286,29.6925432519276L594.2828571428571,43.48102808523118L660.3142857142857,31.088711382859692L726.3457142857143,12.308747745799279L792.3771428571429,16.808699275920404L858.4085714285715,12.231869235089668L924.44,4.2560612153096224L990.4714285714285,20.483411520583342L1056.5028571428572,21.431106313624827L1122.5342857142857,42.16950282382581L1188.5657142857142,19.31534348306932L1254.597142857143,12.954333197619382L1320.6285714285714,40.34992697745197" style="fill: none;" fill="none"></path></g><g><path stroke="rgb(238, 51, 119)" stroke-width="2px" d="M132.06285714285715,433.7399611349692L198.09428571428572,307.25442111531885L264.1257142857143,210.77618789256914L330.15714285714284,162.60738318374285L396.18857142857144,140.1816750543627L462.22,117.58571471934351L528.2514285714286,84.09905146357923L594.2828571428571,63.075388953011924L660.3142857142857,46.578936611781096L726.3457142857143,38.83208507526612L792.3771428571429,22.375319902658084L858.4085714285715,25.62851634327037L924.44,20.02727314045453L990.4714285714285,31.18880747614306L1056.5028571428572,33.312183668496914L1122.5342857142857,23.30057453416015L1188.5657142857142,27.91340068479308L1254.597142857143,25.77872949317906L1320.6285714285714,18.822053037599744" style="fill: none;" fill="none"></path></g></g></g></g><g opacity="0.2"><g><g><g><path stroke="rgb(0, 119, 187)" stroke-width="2px" d="M33.01571428571429,421.4699447751045L66.03142857142858,271.54859042167664L132.06285714285715,219.2178743928671L198.09428571428572,141.0164647400379L264.1257142857143,111.26206046342845L330.15714285714284,66.72648927569385L396.18857142857144,38.58269041776653L462.22,65.85691964626308L528.2514285714286,59.23838189244266L594.2828571428571,62.04916080832477L660.3142857142857,70.50728297233577L726.3457142857143,75.42055642604824L792.3771428571429,84.54174017906185L858.4085714285715,56.863090008497196L924.44,45.94827494025226L990.4714285714285,21.249329060316043L1056.5028571428572,68.60213956236835L1122.5342857142857,59.12557771801944L1188.5657142857142,25.404432624578433L1254.597142857143,20.328300952911334L1320.6285714285714,30.279393106698947" style="fill: none;" fill="none"></path></g><g><path stroke="rgb(187, 187, 187)" stroke-width="2px" d="M33.01571428571429,235.72927644848824L66.03142857142858,44.607040047645526L132.06285714285715,31.350414812564807L198.09428571428572,39.31333339214321L264.1257142857143,22.19046866893764L330.15714285714284,41.06179809570308L396.18857142857144,55.62791800498958L462.22,40.46081250905986L528.2514285714286,16.259710550308185L594.2828571428571,56.65478429198261L660.3142857142857,19.239190131425815L726.3457142857143,-5.655814796686256L792.3771428571429,21.114110112190204L858.4085714285715,7.852485090494114L924.44,-3.3760244548321605L990.4714285714285,36.01178890466686L1056.5028571428572,22.337990462779956L1122.5342857142857,62.01494878530498L1188.5657142857142,-2.5548235476017833L1254.597142857143,6.867190062999684L1320.6285714285714,66.56604668498035" style="fill: none;" fill="none"></path></g><g><path stroke="rgb(238, 51, 119)" stroke-width="2px" d="M66.03142857142858,605.8536274768412L132.06285714285715,298.32848681509495L198.09428571428572,200.36766766011715L264.1257142857143,123.73062944412227L330.15714285714284,117.80121958255764L396.18857142857144,119.01487565040584L462.22,96.10714545845981L528.2514285714286,52.15885257720943L594.2828571428571,42.98901921510692L660.3142857142857,30.805044829845386L726.3457142857143,31.421591550111728L792.3771428571429,6.630009174346882L858.4085714285715,28.74136886000629L924.44,14.66741895675655L990.4714285714285,41.86957260966297L1056.5028571428572,35.34412077069278L1122.5342857142857,13.720043659210162L1188.5657142857142,32.32762029767032L1254.597142857143,23.735964506864505L1320.6285714285714,12.16488531231876" style="fill: none;" fill="none"></path></g></g></g></g></g></g><g transform="translate(51, 377)" clip-path="url(#clip_1)"><clipPath id="clip_1"><rect width="1444" height="23"></rect></clipPath><g><g><line x1="0" y1="0" x2="0" y2="5" style="visibility: inherit;" fill="rgb(0, 0, 0)" stroke="rgb(204, 204, 204)" stroke-width="1px"></line><line x1="206.34821428571428" y1="0" x2="206.34821428571428" y2="5" style="visibility: inherit;" fill="rgb(0, 0, 0)" stroke="rgb(204, 204, 204)" stroke-width="1px"></line><line x1="412.69642857142856" y1="0" x2="412.69642857142856" y2="5" style="visibility: inherit;" fill="rgb(0, 0, 0)" stroke="rgb(204, 204, 204)" stroke-width="1px"></line><line x1="619.0446428571428" y1="0" x2="619.0446428571428" y2="5" style="visibility: inherit;" fill="rgb(0, 0, 0)" stroke="rgb(204, 204, 204)" stroke-width="1px"></line><line x1="825.3928571428571" y1="0" x2="825.3928571428571" y2="5" style="visibility: inherit;" fill="rgb(0, 0, 0)" stroke="rgb(204, 204, 204)" stroke-width="1px"></line><line x1="1031.7410714285716" y1="0" x2="1031.7410714285716" y2="5" style="visibility: inherit;" fill="rgb(0, 0, 0)" stroke="rgb(204, 204, 204)" stroke-width="1px"></line><line x1="1238.0892857142856" y1="0" x2="1238.0892857142856" y2="5" style="visibility: inherit;" fill="rgb(0, 0, 0)" stroke="rgb(204, 204, 204)" stroke-width="1px"></line><line x1="1444.4375" y1="0" x2="1444.4375" y2="5" style="visibility: inherit;" fill="rgb(0, 0, 0)" stroke="rgb(204, 204, 204)" stroke-width="1px"></line></g><g transform="translate(0, 8)"><text x="0" y="0" dx="0em" dy="0.95em" style="text-anchor: middle; visibility: hidden; font-family: Roboto, sans-serif; font-size: 12px; font-weight: 200;" fill="rgb(33, 33, 33)" stroke="none" stroke-width="1px">0</text><text x="206.34821428571428" y="0" dx="0em" dy="0.95em" style="text-anchor: middle; visibility: inherit; font-family: Roboto, sans-serif; font-size: 12px; font-weight: 200;" fill="rgb(33, 33, 33)" stroke="none" stroke-width="1px">50k</text><text x="412.69642857142856" y="0" dx="0em" dy="0.95em" style="text-anchor: middle; visibility: inherit; font-family: Roboto, sans-serif; font-size: 12px; font-weight: 200;" fill="rgb(33, 33, 33)" stroke="none" stroke-width="1px">100k</text><text x="619.0446428571428" y="0" dx="0em" dy="0.95em" style="text-anchor: middle; visibility: inherit; font-family: Roboto, sans-serif; font-size: 12px; font-weight: 200;" fill="rgb(33, 33, 33)" stroke="none" stroke-width="1px">150k</text><text x="825.3928571428571" y="0" dx="0em" dy="0.95em" style="text-anchor: middle; visibility: inherit; font-family: Roboto, sans-serif; font-size: 12px; font-weight: 200;" fill="rgb(33, 33, 33)" stroke="none" stroke-width="1px">200k</text><text x="1031.7410714285716" y="0" dx="0em" dy="0.95em" style="text-anchor: middle; visibility: inherit; font-family: Roboto, sans-serif; font-size: 12px; font-weight: 200;" fill="rgb(33, 33, 33)" stroke="none" stroke-width="1px">250k</text><text x="1238.0892857142856" y="0" dx="0em" dy="0.95em" style="text-anchor: middle; visibility: inherit; font-family: Roboto, sans-serif; font-size: 12px; font-weight: 200;" fill="rgb(33, 33, 33)" stroke="none" stroke-width="1px">300k</text><text x="1444.4375" y="0" dx="0em" dy="0.95em" style="text-anchor: middle; visibility: hidden; font-family: Roboto, sans-serif; font-size: 12px; font-weight: 200;" fill="rgb(33, 33, 33)" stroke="none" stroke-width="1px">350k</text></g><line x1="0" y1="0" x2="1444.4375" y2="0" fill="rgb(0, 0, 0)" stroke="rgb(204, 204, 204)" stroke-width="1px"></line></g></g></g></g></svg>