<svg viewBox="0 0 1496 400" xmlns="http://www.w3.org/2000/svg"><g><g><g><g><g><line x1="41.171875" y1="377" x2="36.171875" y2="377" style="visibility: inherit;" fill="rgb(0, 0, 0)" stroke="rgb(204, 204, 204)" stroke-width="1px"></line><line x1="41.171875" y1="329.875" x2="36.171875" y2="329.875" style="visibility: inherit;" fill="rgb(0, 0, 0)" stroke="rgb(204, 204, 204)" stroke-width="1px"></line><line x1="41.171875" y1="282.75" x2="36.171875" y2="282.75" style="visibility: inherit;" fill="rgb(0, 0, 0)" stroke="rgb(204, 204, 204)" stroke-width="1px"></line><line x1="41.171875" y1="235.625" x2="36.171875" y2="235.625" style="visibility: inherit;" fill="rgb(0, 0, 0)" stroke="rgb(204, 204, 204)" stroke-width="1px"></line><line x1="41.171875" y1="188.5" x2="36.171875" y2="188.5" style="visibility: inherit;" fill="rgb(0, 0, 0)" stroke="rgb(204, 204, 204)" stroke-width="1px"></line><line x1="41.171875" y1="141.375" x2="36.171875" y2="141.375" style="visibility: inherit;" fill="rgb(0, 0, 0)" stroke="rgb(204, 204, 204)" stroke-width="1px"></line><line x1="41.171875" y1="94.24999999999996" x2="36.171875" y2="94.24999999999996" style="visibility: inherit;" fill="rgb(0, 0, 0)" stroke="rgb(204, 204, 204)" stroke-width="1px"></line><line x1="41.171875" y1="47.12500000000004" x2="36.171875" y2="47.12500000000004" style="visibility: inherit;" fill="rgb(0, 0, 0)" stroke="rgb(204, 204, 204)" stroke-width="1px"></line><line x1="41.171875" y1="0" x2="36.171875" y2="0" style="visibility: inherit;" fill="rgb(0, 0, 0)" stroke="rgb(204, 204, 204)" stroke-width="1px"></line></g><g transform="translate(31.171875, 0)"><text x="0" y="377" dx="0em" dy="0.3em" style="text-anchor: end; visibility: hidden; font-family: Roboto, sans-serif; font-size: 12px; font-weight: 200;" fill="rgb(33, 33, 33)" stroke="none" stroke-width="1px">1</text><text x="0" y="329.875" dx="0em" dy="0.3em" style="text-anchor: end; visibility: inherit; font-family: Roboto, sans-serif; font-size: 12px; font-weight: 200;" fill="rgb(33, 33, 33)" stroke="none" stroke-width="1px">1.2</text><text x="0" y="282.75" dx="0em" dy="0.3em" style="text-anchor: end; visibility: inherit; font-family: Roboto, sans-serif; font-size: 12px; font-weight: 200;" fill="rgb(33, 33, 33)" stroke="none" stroke-width="1px">1.4</text><text x="0" y="235.625" dx="0em" dy="0.3em" style="text-anchor: end; visibility: inherit; font-family: Roboto, sans-serif; font-size: 12px; font-weight: 200;" fill="rgb(33, 33, 33)" stroke="none" stroke-width="1px">1.6</text><text x="0" y="188.5" dx="0em" dy="0.3em" style="text-anchor: end; visibility: inherit; font-family: Roboto, sans-serif; font-size: 12px; font-weight: 200;" fill="rgb(33, 33, 33)" stroke="none" stroke-width="1px">1.8</text><text x="0" y="141.375" dx="0em" dy="0.3em" style="text-anchor: end; visibility: inherit; font-family: Roboto, sans-serif; font-size: 12px; font-weight: 200;" fill="rgb(33, 33, 33)" stroke="none" stroke-width="1px">2</text><text x="0" y="94.24999999999996" dx="0em" dy="0.3em" style="text-anchor: end; visibility: inherit; font-family: Roboto, sans-serif; font-size: 12px; font-weight: 200;" fill="rgb(33, 33, 33)" stroke="none" stroke-width="1px">2.2</text><text x="0" y="47.12500000000004" dx="0em" dy="0.3em" style="text-anchor: end; visibility: inherit; font-family: Roboto, sans-serif; font-size: 12px; font-weight: 200;" fill="rgb(33, 33, 33)" stroke="none" stroke-width="1px">2.4</text><text x="0" y="0" dx="0em" dy="0.3em" style="text-anchor: end; visibility: hidden; font-family: Roboto, sans-serif; font-size: 12px; font-weight: 200;" fill="rgb(33, 33, 33)" stroke="none" stroke-width="1px">2.6</text></g><line x1="41.171875" y1="0" x2="41.171875" y2="377" fill="rgb(0, 0, 0)" stroke="rgb(204, 204, 204)" stroke-width="1px"></line></g></g><g transform="translate(41, 0)" clip-path="url(#clip_0)"><clipPath id="clip_0"><rect width="1454" height="377"></rect></clipPath><g><g><g><line x1="0" y1="0" x2="0" y2="377" fill="rgb(0, 0, 0)" stroke="rgb(66, 66, 66)" stroke-width="1px" opacity="0.25"></line><line x1="207.83258928571428" y1="0" x2="207.83258928571428" y2="377" fill="rgb(0, 0, 0)" stroke="rgb(66, 66, 66)" stroke-width="1px" opacity="0.25"></line><line x1="415.66517857142856" y1="0" x2="415.66517857142856" y2="377" fill="rgb(0, 0, 0)" stroke="rgb(66, 66, 66)" stroke-width="1px" opacity="0.25"></line><line x1="623.4977678571428" y1="0" x2="623.4977678571428" y2="377" fill="rgb(0, 0, 0)" stroke="rgb(66, 66, 66)" stroke-width="1px" opacity="0.25"></line><line x1="831.3303571428571" y1="0" x2="831.3303571428571" y2="377" fill="rgb(0, 0, 0)" stroke="rgb(66, 66, 66)" stroke-width="1px" opacity="0.25"></line><line x1="1039.1629464285716" y1="0" x2="1039.1629464285716" y2="377" fill="rgb(0, 0, 0)" stroke="rgb(66, 66, 66)" stroke-width="1px" opacity="0.25"></line><line x1="1246.9955357142856" y1="0" x2="1246.9955357142856" y2="377" fill="rgb(0, 0, 0)" stroke="rgb(66, 66, 66)" stroke-width="1px" opacity="0.25"></line><line x1="1454.828125" y1="0" x2="1454.828125" y2="377" fill="rgb(0, 0, 0)" stroke="rgb(66, 66, 66)" stroke-width="1px" opacity="0.25"></line></g><g><line x1="0" y1="377" x2="1454.828125" y2="377" fill="rgb(0, 0, 0)" stroke="rgb(66, 66, 66)" stroke-width="1px" opacity="0.25"></line><line x1="0" y1="329.875" x2="1454.828125" y2="329.875" fill="rgb(0, 0, 0)" stroke="rgb(66, 66, 66)" stroke-width="1px" opacity="0.25"></line><line x1="0" y1="282.75" x2="1454.828125" y2="282.75" fill="rgb(0, 0, 0)" stroke="rgb(66, 66, 66)" stroke-width="1px" opacity="0.25"></line><line x1="0" y1="235.625" x2="1454.828125" y2="235.625" fill="rgb(0, 0, 0)" stroke="rgb(66, 66, 66)" stroke-width="1px" opacity="0.25"></line><line x1="0" y1="188.5" x2="1454.828125" y2="188.5" fill="rgb(0, 0, 0)" stroke="rgb(66, 66, 66)" stroke-width="1px" opacity="0.25"></line><line x1="0" y1="141.375" x2="1454.828125" y2="141.375" fill="rgb(0, 0, 0)" stroke="rgb(66, 66, 66)" stroke-width="1px" opacity="0.25"></line><line x1="0" y1="94.24999999999996" x2="1454.828125" y2="94.24999999999996" fill="rgb(0, 0, 0)" stroke="rgb(66, 66, 66)" stroke-width="1px" opacity="0.25"></line><line x1="0" y1="47.12500000000004" x2="1454.828125" y2="47.12500000000004" fill="rgb(0, 0, 0)" stroke="rgb(66, 66, 66)" stroke-width="1px" opacity="0.25"></line><line x1="0" y1="0" x2="1454.828125" y2="0" fill="rgb(0, 0, 0)" stroke="rgb(66, 66, 66)" stroke-width="1px" opacity="0.25"></line></g></g></g><g><g><line x1="0" y1="612.625" x2="1454.828125" y2="612.625" fill="rgb(0, 0, 0)" stroke="rgb(153, 153, 153)" stroke-width="1.5px"></line></g></g><g><g><line x1="0" y1="0" x2="0" y2="377" fill="rgb(0, 0, 0)" stroke="rgb(153, 153, 153)" stroke-width="1.5px"></line></g></g><g><g><g><g><g><path stroke="rgb(0, 119, 187)" stroke-width="2px" d="M33.253214285714286,-126.0462272465229L66.50642857142857,24.00905691814797L133.01285714285714,109.79030940357656L199.51928571428573,177.3999175892712L266.0257142857143,219.18866484936515L332.53214285714284,253.4935649226702L399.03857142857146,271.8083144060799L465.545,271.15080407190607L532.0514285714286,276.5044131754502L598.5578571428572,274.74689008613035L665.0642857142857,275.1498423931634L731.5707142857143,273.1515923071007L798.0771428571429,262.1010102429742L864.5835714285714,270.5872677081955L931.09,276.7672239945975L997.5964285714285,283.9673441792319L1064.1028571428571,274.9614485338844L1130.6092857142858,275.499131961755L1197.1157142857144,280.3809048488421L1263.6221428571428,274.0821271797323L1330.1285714285714,273.080044706491" style="fill: none;" fill="none"></path></g><g><path stroke="rgb(187, 187, 187)" stroke-width="2px" d="M33.253214285714286,121.45989489555359L66.50642857142857,285.9755907260467L133.01285714285714,326.3991011046093L199.51928571428573,343.4697130168789L266.0257142857143,325.84234050025503L332.53214285714284,327.9368572903354L399.03857142857146,313.7444299363464L465.545,329.0310949884666L532.0514285714286,337.3579351376639L598.5578571428572,311.11958686648956L665.0642857142857,331.4581481846143L731.5707142857143,310.8692287261432L798.0771428571429,339.28660513606326L864.5835714285714,351.9464714302472L931.09,366.5740756178476L997.5964285714285,350.79293034881346L1064.1028571428571,341.19691783253785L1130.6092857142858,304.91714557639096L1197.1157142857144,339.85037320157966L1263.6221428571428,360.66702254261446L1330.1285714285714,316.30231545295885" style="fill: none;" fill="none"></path></g><g><path stroke="rgb(238, 51, 119)" stroke-width="2px" d="M133.01285714285714,-115.84368785531383L199.51928571428573,30.438254748190232L266.0257142857143,116.20295100953668L332.53214285714284,166.6657356298477L399.03857142857146,182.59001341530833L465.545,207.55683680199823L532.0514285714286,242.83962310378814L598.5578571428572,265.0762375086824L665.0642857142857,275.6171686018161L731.5707142857143,279.1545716923855L798.0771428571429,293.63437502515836L864.5835714285714,290.52529131175964L931.09,288.076590326391L997.5964285714285,286.0324905211322L1064.1028571428571,280.71302974674893L1130.6092857142858,296.45697459599705L1197.1157142857144,295.0681323901804L1263.6221428571428,289.4328285062507L1330.1285714285714,282.1114468368849" style="fill: none;" fill="none"></path></g></g></g></g><g opacity="0.2"><g><g><g><path stroke="rgb(0, 119, 187)" stroke-width="2px" d="M33.253214285714286,-126.0462272465229L66.50642857142857,97.38609087467194L133.01285714285714,172.24944074451923L199.51928571428573,234.53349602222443L266.0257142857143,256.89172719419L332.53214285714284,285.4036564081907L399.03857142857146,289.0949314534664L465.545,270.52580823004246L532.0514285714286,281.61078457534313L598.5578571428572,273.0677222162485L665.0642857142857,275.5351449996233L731.5707142857143,271.2401035875082L798.0771428571429,251.52816396951675L864.5835714285714,278.7074253410101L931.09,282.6808512657881L997.5964285714285,290.8573281466961L1064.1028571428571,266.3433743715286L1130.6092857142858,276.01366390287876L1197.1157142857144,285.052491620183L1263.6221428571428,268.05453729629517L1330.1285714285714,272.1211053133011" style="fill: none;" fill="none"></path></g><g><path stroke="rgb(187, 187, 187)" stroke-width="2px" d="M33.253214285714286,121.45989489555359L66.50642857142857,366.4237659871578L133.01285714285714,355.8323079049587L199.51928571428573,357.8952535688877L266.0257142857143,309.9383958131075L332.53214285714284,329.8851568698883L399.03857142857146,300.348720818758L465.545,343.56182035803795L532.0514285714286,345.3002293109894L598.5578571428572,286.05101642012596L665.0642857142857,350.9058608561754L731.5707142857143,291.1742528229952L798.0771428571429,366.47544917464256L864.5835714285714,364.060187086463L931.09,380.5712942108512L997.5964285714285,335.6915382742882L1064.1028571428571,332.0141390413046L1130.6092857142858,270.1995019316673L1197.1157142857144,373.27954080700874L1263.6221428571428,380.58743116259575L1330.1285714285714,273.84766083955765" style="fill: none;" fill="none"></path></g><g><path stroke="rgb(238, 51, 119)" stroke-width="2px" d="M66.50642857142857,-363.4362642765045L133.01285714285714,80.88072788715363L199.51928571428573,154.05398134887218L266.0257142857143,193.58243477344513L332.53214285714284,213.6057375073433L399.03857142857146,197.62035232782364L465.545,231.2890277504921L532.0514285714286,276.4929973781109L598.5578571428572,286.3214824050665L665.0642857142857,285.6963967233896L731.5707142857143,282.53838543593884L798.0771428571429,307.488191395998L864.5835714285714,287.55033445358276L931.09,285.73341761529446L997.5964285714285,284.07643777132034L1064.1028571428571,275.6226412653923L1130.6092857142858,311.52301919460297L1197.1157142857144,293.73908717930317L1263.6221428571428,284.0401471853256L1330.1285714285714,275.10527570545673" style="fill: none;" fill="none"></path></g></g></g></g></g></g><g transform="translate(41, 377)" clip-path="url(#clip_1)"><clipPath id="clip_1"><rect width="1454" height="23"></rect></clipPath><g><g><line x1="0" y1="0" x2="0" y2="5" style="visibility: inherit;" fill="rgb(0, 0, 0)" stroke="rgb(204, 204, 204)" stroke-width="1px"></line><line x1="207.83258928571428" y1="0" x2="207.83258928571428" y2="5" style="visibility: inherit;" fill="rgb(0, 0, 0)" stroke="rgb(204, 204, 204)" stroke-width="1px"></line><line x1="415.66517857142856" y1="0" x2="415.66517857142856" y2="5" style="visibility: inherit;" fill="rgb(0, 0, 0)" stroke="rgb(204, 204, 204)" stroke-width="1px"></line><line x1="623.4977678571428" y1="0" x2="623.4977678571428" y2="5" style="visibility: inherit;" fill="rgb(0, 0, 0)" stroke="rgb(204, 204, 204)" stroke-width="1px"></line><line x1="831.3303571428571" y1="0" x2="831.3303571428571" y2="5" style="visibility: inherit;" fill="rgb(0, 0, 0)" stroke="rgb(204, 204, 204)" stroke-width="1px"></line><line x1="1039.1629464285716" y1="0" x2="1039.1629464285716" y2="5" style="visibility: inherit;" fill="rgb(0, 0, 0)" stroke="rgb(204, 204, 204)" stroke-width="1px"></line><line x1="1246.9955357142856" y1="0" x2="1246.9955357142856" y2="5" style="visibility: inherit;" fill="rgb(0, 0, 0)" stroke="rgb(204, 204, 204)" stroke-width="1px"></line><line x1="1454.828125" y1="0" x2="1454.828125" y2="5" style="visibility: inherit;" fill="rgb(0, 0, 0)" stroke="rgb(204, 204, 204)" stroke-width="1px"></line></g><g transform="translate(0, 8)"><text x="0" y="0" dx="0em" dy="0.95em" style="text-anchor: middle; visibility: hidden; font-family: Roboto, sans-serif; font-size: 12px; font-weight: 200;" fill="rgb(33, 33, 33)" stroke="none" stroke-width="1px">0</text><text x="207.83258928571428" y="0" dx="0em" dy="0.95em" style="text-anchor: middle; visibility: inherit; font-family: Roboto, sans-serif; font-size: 12px; font-weight: 200;" fill="rgb(33, 33, 33)" stroke="none" stroke-width="1px">50k</text><text x="415.66517857142856" y="0" dx="0em" dy="0.95em" style="text-anchor: middle; visibility: inherit; font-family: Roboto, sans-serif; font-size: 12px; font-weight: 200;" fill="rgb(33, 33, 33)" stroke="none" stroke-width="1px">100k</text><text x="623.4977678571428" y="0" dx="0em" dy="0.95em" style="text-anchor: middle; visibility: inherit; font-family: Roboto, sans-serif; font-size: 12px; font-weight: 200;" fill="rgb(33, 33, 33)" stroke="none" stroke-width="1px">150k</text><text x="831.3303571428571" y="0" dx="0em" dy="0.95em" style="text-anchor: middle; visibility: inherit; font-family: Roboto, sans-serif; font-size: 12px; font-weight: 200;" fill="rgb(33, 33, 33)" stroke="none" stroke-width="1px">200k</text><text x="1039.1629464285716" y="0" dx="0em" dy="0.95em" style="text-anchor: middle; visibility: inherit; font-family: Roboto, sans-serif; font-size: 12px; font-weight: 200;" fill="rgb(33, 33, 33)" stroke="none" stroke-width="1px">250k</text><text x="1246.9955357142856" y="0" dx="0em" dy="0.95em" style="text-anchor: middle; visibility: inherit; font-family: Roboto, sans-serif; font-size: 12px; font-weight: 200;" fill="rgb(33, 33, 33)" stroke="none" stroke-width="1px">300k</text><text x="1454.828125" y="0" dx="0em" dy="0.95em" style="text-anchor: middle; visibility: hidden; font-family: Roboto, sans-serif; font-size: 12px; font-weight: 200;" fill="rgb(33, 33, 33)" stroke="none" stroke-width="1px">350k</text></g><line x1="0" y1="0" x2="1454.828125" y2="0" fill="rgb(0, 0, 0)" stroke="rgb(204, 204, 204)" stroke-width="1px"></line></g></g></g></g></svg>